<svg fill="#4c5358" version="1.1"  xmlns="http://www.w3.org/2000/svg"  x="0px" y="0px"
	 width="96px" height="96px" viewBox="0 0 96 96"  >
<path d="M94.017,25.308l-1.582-1.583c-1.312-1.312-3.438-2.103-4.749-0.791L76.212,34.408L65.136,23.331
	c-1.312-1.312-3.438-1.312-4.75,0l-1.582,1.583c-1.312,1.312-1.312,3.437,0,4.747l17.41,17.409l17.804-17.804
	C95.327,27.953,95.328,26.62,94.017,25.308z"/>
<path d="M52.477,28.04c0,2.989-2.424,5.413-5.413,5.413H6.413C3.424,33.452,1,31.028,1,28.04v-0.365
	c0-2.989,2.424-5.413,5.413-5.413h40.651c2.989,0,5.413,2.424,5.413,5.413V28.04z"/>
<path d="M52.477,68.325c0,2.989-2.424,5.413-5.413,5.413H6.413C3.424,73.738,1,71.314,1,68.325v-0.364
	c0-2.989,2.424-5.413,5.413-5.413h40.651c2.989,0,5.413,2.424,5.413,5.413V68.325z"/>
<path d="M52.477,48.183c0,2.989-2.424,5.413-5.413,5.413H6.413C3.424,53.596,1,51.172,1,48.183v-0.365
	c0-2.989,2.424-5.413,5.413-5.413h40.651c2.989,0,5.413,2.424,5.413,5.413V48.183z"/>
</svg>
