<?xml version="1.0" encoding="UTF-8" standalone="no"?>
<!-- Generator: Adobe Illustrator 19.2.0, SVG Export Plug-In . SVG Version: 6.00 Build 0)  -->

<svg
   xmlns:dc="http://purl.org/dc/elements/1.1/"
   xmlns:cc="http://creativecommons.org/ns#"
   xmlns:rdf="http://www.w3.org/1999/02/22-rdf-syntax-ns#"
   xmlns:svg="http://www.w3.org/2000/svg"
   xmlns="http://www.w3.org/2000/svg"
   xmlns:sodipodi="http://sodipodi.sourceforge.net/DTD/sodipodi-0.dtd"
   xmlns:inkscape="http://www.inkscape.org/namespaces/inkscape"
   version="1.1"
   id="Layer_1"
   x="0px"
   y="0px"
   viewBox="0 0 1420 87.8"
   style="enable-background:new 0 0 1420 87.8;"
   xml:space="preserve"
   sodipodi:docname="unit4-information-browser.svg"
   inkscape:version="0.92.1 r15371"><metadata
     id="metadata3734"><rdf:RDF><cc:Work
         rdf:about=""><dc:format>image/svg+xml</dc:format><dc:type
           rdf:resource="http://purl.org/dc/dcmitype/StillImage" /><dc:title></dc:title></cc:Work></rdf:RDF></metadata><defs
     id="defs3732"><clipPath
       clipPathUnits="userSpaceOnUse"
       id="clipPath121"><g
         transform="translate(-1.0939465e-6)"
         id="use123"
         inkscape:label="Clip"><g
           id="g204"
           style="font-style:normal;font-weight:normal;font-size:96px;line-height:1.25;font-family:sans-serif;letter-spacing:0px;word-spacing:0px;fill:#7c878e;fill-opacity:1;stroke:none"
           transform="matrix(1.336156,0,0,1.336156,-151.16332,-167.82534)"
           aria-label="Information Browser"><path
             inkscape:connector-curvature="0"
             id="path168"
             style="font-style:normal;font-variant:normal;font-weight:normal;font-stretch:normal;font-size:96px;font-family:DagnyCompPro-Light;-inkscape-font-specification:DagnyCompPro-Light;fill:#7c878e;fill-opacity:1"
             d="m 437.00736,125.80852 h 5.28 v 67.776 h -5.28 z" /><path
             inkscape:connector-curvature="0"
             id="path170"
             style="font-style:normal;font-variant:normal;font-weight:normal;font-stretch:normal;font-size:96px;font-family:DagnyCompPro-Light;-inkscape-font-specification:DagnyCompPro-Light;fill:#7c878e;fill-opacity:1"
             d="m 457.12986,147.02452 h 4.128 l 0.576,10.464 q 0.864,-2.304 2.208,-4.416 1.44,-2.112 3.456,-3.744 2.016,-1.728 4.608,-2.688 2.592,-0.96 5.664,-0.96 7.008,0 10.368,4.608 3.36,4.512 3.36,12.192 v 31.104 h -4.896 v -30.336 q 0,-6.72 -2.88,-9.984 -2.88,-3.264 -7.68,-3.264 -3.072,0 -5.664,1.344 -2.496,1.248 -4.416,3.552 -1.824,2.304 -2.88,5.568 -1.056,3.264 -1.056,7.2 v 25.92 h -4.896 z" /><path
             inkscape:connector-curvature="0"
             id="path172"
             style="font-style:normal;font-variant:normal;font-weight:normal;font-stretch:normal;font-size:96px;font-family:DagnyCompPro-Light;-inkscape-font-specification:DagnyCompPro-Light;fill:#7c878e;fill-opacity:1"
             d="m 508.69536,150.48052 h -8.352 v -3.456 h 8.064 q -0.768,-2.688 -1.44,-5.664 -0.576,-3.072 -0.576,-5.952 0,-2.208 0.384,-4.224 0.48,-2.016 1.632,-3.552 1.152,-1.536 3.072,-2.4 2.016,-0.96 5.088,-0.96 3.84,0 7.008,1.344 l -1.056,3.744 q -1.056,-0.48 -2.496,-0.768 -1.344,-0.384 -2.688,-0.384 -3.072,0 -4.608,2.016 -1.44,2.016 -1.44,5.664 0,2.784 0.576,6.048 0.672,3.168 1.44,5.088 h 8.928 v 3.456 h -8.64 v 43.104 h -4.896 z" /><path
             inkscape:connector-curvature="0"
             id="path174"
             style="font-style:normal;font-variant:normal;font-weight:normal;font-stretch:normal;font-size:96px;font-family:DagnyCompPro-Light;-inkscape-font-specification:DagnyCompPro-Light;fill:#7c878e;fill-opacity:1"
             d="m 550.00386,194.92852 q -5.088,0 -8.928,-1.92 -3.84,-1.92 -6.432,-5.28 -2.592,-3.36 -3.936,-7.872 -1.344,-4.512 -1.344,-9.696 0,-5.184 1.344,-9.6 1.344,-4.512 3.936,-7.776 2.592,-3.36 6.432,-5.184 3.84,-1.92 8.928,-1.92 4.992,0 8.832,1.92 3.84,1.824 6.432,5.088 2.592,3.264 3.936,7.776 1.344,4.512 1.344,9.696 0,5.184 -1.344,9.696 -1.344,4.512 -3.936,7.872 -2.592,3.36 -6.432,5.28 -3.84,1.92 -8.832,1.92 z m 0,-3.84 q 3.744,0 6.624,-1.632 2.976,-1.632 4.896,-4.512 2.016,-2.88 2.976,-6.624 1.056,-3.84 1.056,-8.16 0,-4.416 -1.056,-8.16 -0.96,-3.744 -2.976,-6.432 -1.92,-2.784 -4.896,-4.32 -2.88,-1.632 -6.72,-1.632 -3.84,0 -6.72,1.632 -2.88,1.536 -4.896,4.32 -1.92,2.688 -2.88,6.432 -0.96,3.744 -0.96,8.16 0,4.32 0.96,8.16 1.056,3.744 2.976,6.624 1.92,2.88 4.8,4.512 2.976,1.632 6.816,1.632 z" /><path
             inkscape:connector-curvature="0"
             id="path176"
             style="font-style:normal;font-variant:normal;font-weight:normal;font-stretch:normal;font-size:96px;font-family:DagnyCompPro-Light;-inkscape-font-specification:DagnyCompPro-Light;fill:#7c878e;fill-opacity:1"
             d="m 581.81736,147.02452 h 4.128 l 0.576,11.04 q 0.96,-2.688 2.592,-4.992 1.728,-2.304 3.936,-3.936 2.208,-1.632 4.8,-2.496 2.592,-0.96 5.472,-0.96 v 5.28 q -0.48,-0.096 -1.056,-0.096 -0.576,0 -1.056,0 -2.592,0 -5.184,1.152 -2.496,1.056 -4.608,3.264 -2.112,2.112 -3.456,5.376 -1.248,3.168 -1.248,7.296 v 25.632 h -4.896 z" /><path
             inkscape:connector-curvature="0"
             id="path178"
             style="font-style:normal;font-variant:normal;font-weight:normal;font-stretch:normal;font-size:96px;font-family:DagnyCompPro-Light;-inkscape-font-specification:DagnyCompPro-Light;fill:#7c878e;fill-opacity:1"
             d="m 612.00486,147.02452 h 4.128 l 0.576,10.368 q 1.632,-5.184 5.376,-8.448 3.744,-3.264 9.024,-3.264 5.472,0 8.544,3.36 3.168,3.36 3.936,8.256 1.728,-4.992 5.184,-8.256 3.552,-3.36 9.504,-3.36 3.648,0 6.144,1.344 2.496,1.248 4.032,3.456 1.536,2.208 2.208,5.28 0.672,3.072 0.672,6.528 v 31.296 h -4.896 v -30.432 q 0,-6.624 -2.592,-9.888 -2.496,-3.264 -7.104,-3.264 -2.784,0 -5.088,1.344 -2.304,1.344 -4.032,3.744 -1.632,2.304 -2.592,5.568 -0.864,3.264 -0.864,7.104 v 25.824 h -4.896 v -29.568 q 0,-7.2 -2.688,-10.56 -2.592,-3.456 -7.008,-3.456 -2.784,0 -5.088,1.344 -2.304,1.344 -4.032,3.744 -1.632,2.4 -2.592,5.76 -0.96,3.264 -0.96,7.2 v 25.536 h -4.896 z" /><path
             inkscape:connector-curvature="0"
             id="path180"
             style="font-style:normal;font-variant:normal;font-weight:normal;font-stretch:normal;font-size:96px;font-family:DagnyCompPro-Light;-inkscape-font-specification:DagnyCompPro-Light;fill:#7c878e;fill-opacity:1"
             d="m 714.51936,193.58452 q -0.48,-2.208 -0.768,-4.32 -0.288,-2.208 -0.288,-4.896 -2.112,5.088 -6.432,7.872 -4.32,2.688 -9.792,2.688 -6.624,0 -10.56,-3.744 -3.936,-3.744 -3.936,-10.272 0,-3.744 1.344,-6.144 1.344,-2.496 3.648,-4.032 2.4,-1.632 5.568,-2.496 3.264,-0.864 6.912,-1.44 l 12.96,-2.016 v -3.552 q 0,-3.744 -0.96,-6.048 -0.864,-2.304 -2.4,-3.456 -1.536,-1.248 -3.552,-1.632 -1.92,-0.48 -4.032,-0.48 -5.856,0 -9.504,2.208 -3.648,2.112 -5.952,5.568 l -2.784,-3.072 q 2.592,-3.84 7.104,-6.24 4.608,-2.4 11.52,-2.4 8.064,0 11.712,3.648 3.744,3.648 3.744,12.096 v 19.776 q 0,2.112 0,3.744 0.096,1.632 0.192,3.072 0.192,1.44 0.48,2.784 0.288,1.344 0.672,2.784 z m -1.344,-25.344 -13.152,2.112 q -6.816,1.056 -9.696,3.552 -2.784,2.496 -2.784,6.816 0,4.416 2.688,7.488 2.784,3.072 7.968,3.072 3.072,0 5.76,-1.152 2.784,-1.248 4.8,-3.36 2.016,-2.112 3.168,-4.992 1.248,-2.976 1.248,-6.432 z" /><path
             inkscape:connector-curvature="0"
             id="path182"
             style="font-style:normal;font-variant:normal;font-weight:normal;font-stretch:normal;font-size:96px;font-family:DagnyCompPro-Light;-inkscape-font-specification:DagnyCompPro-Light;fill:#7c878e;fill-opacity:1"
             d="m 736.51236,150.48052 h -8.16 v -3.456 h 1.92 q 2.688,0 4.224,-0.384 1.536,-0.384 2.304,-1.536 0.768,-1.152 0.96,-3.264 0.288,-2.208 0.576,-5.76 l 0.096,-1.344 h 2.88 v 12.288 h 10.368 v 3.456 h -10.368 v 32.064 q 0,4.896 1.344,6.72 1.44,1.824 4.8,1.824 1.632,0 2.784,-0.288 1.152,-0.384 2.208,-0.864 l 0.672,3.552 q -3.36,1.44 -7.008,1.44 -2.976,0 -4.896,-0.864 -1.824,-0.768 -2.88,-2.304 -1.056,-1.536 -1.44,-3.552 -0.384,-2.112 -0.384,-4.608 z" /><path
             inkscape:connector-curvature="0"
             id="path184"
             style="font-style:normal;font-variant:normal;font-weight:normal;font-stretch:normal;font-size:96px;font-family:DagnyCompPro-Light;-inkscape-font-specification:DagnyCompPro-Light;fill:#7c878e;fill-opacity:1"
             d="m 762.47136,129.07252 h 5.088 v 5.76 h -5.088 z m 0.096,17.952 h 4.896 v 46.56 h -4.896 z" /><path
             inkscape:connector-curvature="0"
             id="path186"
             style="font-style:normal;font-variant:normal;font-weight:normal;font-stretch:normal;font-size:96px;font-family:DagnyCompPro-Light;-inkscape-font-specification:DagnyCompPro-Light;fill:#7c878e;fill-opacity:1"
             d="m 799.37886,194.92852 q -5.088,0 -8.928,-1.92 -3.84,-1.92 -6.432,-5.28 -2.592,-3.36 -3.936,-7.872 -1.344,-4.512 -1.344,-9.696 0,-5.184 1.344,-9.6 1.344,-4.512 3.936,-7.776 2.592,-3.36 6.432,-5.184 3.84,-1.92 8.928,-1.92 4.992,0 8.832,1.92 3.84,1.824 6.432,5.088 2.592,3.264 3.936,7.776 1.344,4.512 1.344,9.696 0,5.184 -1.344,9.696 -1.344,4.512 -3.936,7.872 -2.592,3.36 -6.432,5.28 -3.84,1.92 -8.832,1.92 z m 0,-3.84 q 3.744,0 6.624,-1.632 2.976,-1.632 4.896,-4.512 2.016,-2.88 2.976,-6.624 1.056,-3.84 1.056,-8.16 0,-4.416 -1.056,-8.16 -0.96,-3.744 -2.976,-6.432 -1.92,-2.784 -4.896,-4.32 -2.88,-1.632 -6.72,-1.632 -3.84,0 -6.72,1.632 -2.88,1.536 -4.896,4.32 -1.92,2.688 -2.88,6.432 -0.96,3.744 -0.96,8.16 0,4.32 0.96,8.16 1.056,3.744 2.976,6.624 1.92,2.88 4.8,4.512 2.976,1.632 6.816,1.632 z" /><path
             inkscape:connector-curvature="0"
             id="path188"
             style="font-style:normal;font-variant:normal;font-weight:normal;font-stretch:normal;font-size:96px;font-family:DagnyCompPro-Light;-inkscape-font-specification:DagnyCompPro-Light;fill:#7c878e;fill-opacity:1"
             d="m 831.19236,147.02452 h 4.128 l 0.576,10.464 q 0.864,-2.304 2.208,-4.416 1.44,-2.112 3.456,-3.744 2.016,-1.728 4.608,-2.688 2.592,-0.96 5.664,-0.96 7.008,0 10.368,4.608 3.36,4.512 3.36,12.192 v 31.104 h -4.896 v -30.336 q 0,-6.72 -2.88,-9.984 -2.88,-3.264 -7.68,-3.264 -3.072,0 -5.664,1.344 -2.496,1.248 -4.416,3.552 -1.824,2.304 -2.88,5.568 -1.056,3.264 -1.056,7.2 v 25.92 h -4.896 z" /><path
             inkscape:connector-curvature="0"
             id="path190"
             style="font-style:normal;font-variant:normal;font-weight:normal;font-stretch:normal;font-size:96px;font-family:DagnyCompPro-Light;-inkscape-font-specification:DagnyCompPro-Light;fill:#7c878e;fill-opacity:1"
             d="m 900.76836,125.80852 h 19.488 q 4.128,0 8.064,0.768 3.936,0.672 6.912,2.592 3.072,1.824 4.896,4.992 1.824,3.072 1.824,7.872 0,6.72 -3.84,10.752 -3.84,3.936 -10.56,4.896 3.36,0.48 6.24,1.728 2.976,1.248 5.184,3.36 2.208,2.112 3.456,5.184 1.344,2.976 1.344,6.912 0,5.088 -1.728,8.64 -1.632,3.552 -4.704,5.856 -2.976,2.208 -7.2,3.264 -4.224,0.96 -9.312,0.96 h -20.064 z m 17.28,29.856 q 2.784,0 5.952,-0.288 3.264,-0.384 5.952,-1.632 2.784,-1.344 4.608,-4.032 1.824,-2.688 1.824,-7.392 0,-3.744 -1.44,-6.144 -1.44,-2.4 -3.84,-3.744 -2.304,-1.44 -5.28,-1.92 -2.976,-0.48 -6.144,-0.48 h -13.632 v 25.632 z m 2.112,33.696 q 2.976,0 6.144,-0.576 3.264,-0.576 5.856,-2.208 2.688,-1.632 4.32,-4.512 1.728,-2.976 1.728,-7.776 0,-4.32 -1.728,-7.104 -1.728,-2.88 -4.512,-4.416 -2.688,-1.632 -6.144,-2.208 -3.36,-0.672 -6.816,-0.672 h -12.96 v 29.472 z" /><path
             inkscape:connector-curvature="0"
             id="path192"
             style="font-style:normal;font-variant:normal;font-weight:normal;font-stretch:normal;font-size:96px;font-family:DagnyCompPro-Light;-inkscape-font-specification:DagnyCompPro-Light;fill:#7c878e;fill-opacity:1"
             d="m 955.12986,147.02452 h 4.128 l 0.576,11.04 q 0.96,-2.688 2.592,-4.992 1.728,-2.304 3.936,-3.936 2.208,-1.632 4.8,-2.496 2.592,-0.96 5.472,-0.96 v 5.28 q -0.48,-0.096 -1.056,-0.096 -0.576,0 -1.056,0 -2.592,0 -5.184,1.152 -2.496,1.056 -4.608,3.264 -2.112,2.112 -3.456,5.376 -1.248,3.168 -1.248,7.296 v 25.632 h -4.896 z" /><path
             inkscape:connector-curvature="0"
             id="path194"
             style="font-style:normal;font-variant:normal;font-weight:normal;font-stretch:normal;font-size:96px;font-family:DagnyCompPro-Light;-inkscape-font-specification:DagnyCompPro-Light;fill:#7c878e;fill-opacity:1"
             d="m 1003.9414,194.92852 q -5.08804,0 -8.92804,-1.92 -3.84,-1.92 -6.432,-5.28 -2.592,-3.36 -3.936,-7.872 -1.344,-4.512 -1.344,-9.696 0,-5.184 1.344,-9.6 1.344,-4.512 3.936,-7.776 2.592,-3.36 6.432,-5.184 3.84,-1.92 8.92804,-1.92 4.992,0 8.832,1.92 3.84,1.824 6.432,5.088 2.592,3.264 3.936,7.776 1.344,4.512 1.344,9.696 0,5.184 -1.344,9.696 -1.344,4.512 -3.936,7.872 -2.592,3.36 -6.432,5.28 -3.84,1.92 -8.832,1.92 z m 0,-3.84 q 3.744,0 6.624,-1.632 2.976,-1.632 4.896,-4.512 2.016,-2.88 2.976,-6.624 1.056,-3.84 1.056,-8.16 0,-4.416 -1.056,-8.16 -0.96,-3.744 -2.976,-6.432 -1.92,-2.784 -4.896,-4.32 -2.88,-1.632 -6.72,-1.632 -3.84,0 -6.72004,1.632 -2.88,1.536 -4.896,4.32 -1.92,2.688 -2.88,6.432 -0.96,3.744 -0.96,8.16 0,4.32 0.96,8.16 1.056,3.744 2.976,6.624 1.92,2.88 4.8,4.512 2.97604,1.632 6.81604,1.632 z" /><path
             inkscape:connector-curvature="0"
             id="path196"
             style="font-style:normal;font-variant:normal;font-weight:normal;font-stretch:normal;font-size:96px;font-family:DagnyCompPro-Light;-inkscape-font-specification:DagnyCompPro-Light;fill:#7c878e;fill-opacity:1"
             d="m 1032.6829,147.02452 h 5.28 l 10.656,41.856 10.656,-41.856 h 5.664 l 10.56,41.856 10.656,-41.856 h 5.184 l -13.152,46.56 h -5.568 l -10.56,-40.32 -10.656,40.32 h -5.664 z" /><path
             inkscape:connector-curvature="0"
             id="path198"
             style="font-style:normal;font-variant:normal;font-weight:normal;font-stretch:normal;font-size:96px;font-family:DagnyCompPro-Light;-inkscape-font-specification:DagnyCompPro-Light;fill:#7c878e;fill-opacity:1"
             d="m 1101.9334,183.79252 q 2.4,3.36 6.144,5.376 3.744,2.016 8.352,2.016 2.4,0 4.512,-0.576 2.208,-0.672 3.744,-1.824 1.632,-1.152 2.496,-2.88 0.96,-1.824 0.96,-4.128 0,-3.456 -2.016,-5.376 -1.92,-1.92 -4.896,-3.168 -2.976,-1.248 -6.528,-2.208 -3.456,-0.96 -6.432,-2.4 -2.976,-1.536 -4.992,-3.936 -1.92,-2.4 -1.92,-6.528 0,-3.264 1.248,-5.568 1.344,-2.4 3.552,-3.936 2.208,-1.536 4.992,-2.208 2.784,-0.768 5.856,-0.768 9.216,0 14.976,5.76 l -2.688,3.264 q -2.208,-2.496 -5.472,-3.84 -3.264,-1.44 -7.008,-1.44 -2.016,0 -3.936,0.48 -1.824,0.48 -3.36,1.536 -1.44,0.96 -2.4,2.592 -0.864,1.536 -0.864,3.744 0,3.168 1.92,4.992 2.016,1.728 4.992,2.88 2.976,1.152 6.432,2.208 3.552,0.96 6.528,2.496 2.976,1.536 4.896,4.128 2.016,2.496 2.016,6.816 0,3.36 -1.344,5.952 -1.248,2.496 -3.552,4.224 -2.208,1.728 -5.28,2.592 -2.976,0.864 -6.432,0.864 -5.472,0 -9.888,-1.92 -4.32,-1.92 -7.488,-5.952 z" /><path
             inkscape:connector-curvature="0"
             id="path200"
             style="font-style:normal;font-variant:normal;font-weight:normal;font-stretch:normal;font-size:96px;font-family:DagnyCompPro-Light;-inkscape-font-specification:DagnyCompPro-Light;fill:#7c878e;fill-opacity:1"
             d="m 1146.3559,171.40852 q 0.096,4.416 1.152,8.064 1.152,3.648 3.168,6.24 2.016,2.592 4.992,4.032 2.976,1.44 6.912,1.44 4.608,0 8.064,-2.112 3.456,-2.208 5.76,-6.816 l 3.744,2.112 q -1.152,2.208 -2.784,4.128 -1.632,1.92 -3.84,3.36 -2.112,1.44 -4.896,2.208 -2.784,0.864 -6.24,0.864 -5.376,0 -9.312,-1.92 -3.936,-1.92 -6.528,-5.184 -2.592,-3.36 -3.84,-7.776 -1.248,-4.416 -1.248,-9.408 0,-4.896 1.248,-9.408 1.248,-4.512 3.744,-7.968 2.496,-3.456 6.24,-5.472 3.744,-2.112 8.832,-2.112 4.992,0 8.64,2.016 3.648,1.92 6.048,5.184 2.4,3.168 3.552,7.392 1.152,4.224 1.152,8.64 0,0.96 -0.096,1.536 0,0.48 0,0.96 z m 15.168,-21.984 q -6.912,0 -10.848,5.184 -3.84,5.184 -4.32,13.632 h 29.664 q 0,-3.36 -0.864,-6.72 -0.768,-3.36 -2.496,-6.048 -1.728,-2.688 -4.512,-4.32 -2.688,-1.728 -6.624,-1.728 z" /><path
             inkscape:connector-curvature="0"
             id="path202"
             style="font-style:normal;font-variant:normal;font-weight:normal;font-stretch:normal;font-size:96px;font-family:DagnyCompPro-Light;-inkscape-font-specification:DagnyCompPro-Light;fill:#7c878e;fill-opacity:1"
             d="m 1191.9424,147.02452 h 4.128 l 0.576,11.04 q 0.96,-2.688 2.592,-4.992 1.728,-2.304 3.936,-3.936 2.208,-1.632 4.8,-2.496 2.592,-0.96 5.472,-0.96 v 5.28 q -0.48,-0.096 -1.056,-0.096 -0.576,0 -1.056,0 -2.592,0 -5.184,1.152 -2.496,1.056 -4.608,3.264 -2.112,2.112 -3.456,5.376 -1.248,3.168 -1.248,7.296 v 25.632 h -4.896 z" /></g></g></clipPath></defs><sodipodi:namedview
     pagecolor="#ffffff"
     bordercolor="#666666"
     borderopacity="1"
     objecttolerance="10"
     gridtolerance="10"
     guidetolerance="10"
     inkscape:pageopacity="0"
     inkscape:pageshadow="2"
     inkscape:window-width="1576"
     inkscape:window-height="600"
     id="namedview3730"
     showgrid="false"
     inkscape:snap-text-baseline="false"
     inkscape:zoom="0.87890385"
     inkscape:cx="909.02278"
     inkscape:cy="-12.563643"
     inkscape:window-x="133"
     inkscape:window-y="196"
     inkscape:window-maximized="0"
     inkscape:current-layer="Layer_1" /><style
     type="text/css"
     id="style3680">
	.st0{fill:#7C878E;}
	.st1{fill:#AFC836;}
</style><g
     id="g3690"><path
       class="st0"
       d="M57.5,1.2V52c0,12.7-7.6,20.2-20.2,20.2c-12.7,0-20.4-7.6-20.4-20.2V1.2H0v48.9c0,22.6,15,37.8,37.3,37.8   s37.2-15.2,37.2-37.8V1.2H57.5z"
       id="path3682" /><path
       class="st0"
       d="M133.1,0c-22.3,0-37.3,15.2-37.3,37.8v49.3h17V35.8c0-12.7,7.6-20.2,20.2-20.2c12.7,0,20.4,7.6,20.4,20.2V87   h16.9V37.8C170.3,15.2,155.3,0,133.1,0z"
       id="path3684" /><path
       style="fill:#7c878e"
       d="m 195.60001,1.2 h 16.9 v 85.900002 h -16.9 z"
       id="rect3686" /><path
       style="fill:#7c878e"
       d="m 235.1,1.2 v 15.9 h 25.3 v 70 h 16.9 v -70 h 25.3 V 1.2 Z"
       id="polygon3688" /></g><g
     id="g3694"><path
       class="st1"
       d="M368.6,1.2h-18.3l-41.1,57.5c-1.2,1.7-1.7,3.8-1.3,5.8c0.4,2.1,1.5,3.8,3.2,5c1.3,0.9,2.9,1.4,4.5,1.4l0,0H347   V87h15.6V57.4H329L368.6,1.2z"
       id="path3692" /></g><g
     id="g96"><g
       style="font-style:normal;font-weight:normal;font-size:96px;line-height:1.25;font-family:sans-serif;letter-spacing:0px;word-spacing:0px;fill:#000000;fill-opacity:1;stroke:none"
       id="flowRoot3736"
       transform="matrix(0.92768911,0,0,0.92768911,31.292295,1.8714404)" /><path
       d="m 432.7467,2.1260658 h 6.54475 V 86.136953 h -6.54475 z"
       style="font-style:normal;font-variant:normal;font-weight:normal;font-stretch:normal;font-size:96px;line-height:1.25;font-family:DagnyCompPro-Light;-inkscape-font-specification:DagnyCompPro-Light;letter-spacing:0px;word-spacing:0px;fill:#7c878e;fill-opacity:1;stroke:none;stroke-width:1.23953736"
       id="path34"
       inkscape:connector-curvature="0" /><path
       d="m 457.68929,28.424091 h 5.11681 l 0.71397,12.97052 q 1.07096,-2.855895 2.7369,-5.473798 1.78493,-2.617903 4.28384,-4.640828 2.49891,-2.14192 5.71179,-3.331876 3.21288,-1.189956 7.02074,-1.189956 8.68668,0 12.85152,5.711788 4.16485,5.592793 4.16485,15.11244 v 38.554572 h -6.06878 V 48.534346 q 0,-8.329691 -3.56986,-12.375541 -3.56987,-4.04585 -9.51965,-4.04585 -3.80786,0 -7.02074,1.665938 -3.09389,1.546943 -5.4738,4.402837 -2.26091,2.855894 -3.56987,6.901744 -1.30895,4.04585 -1.30895,8.924669 v 32.12881 h -6.06877 z"
       style="font-style:normal;font-variant:normal;font-weight:normal;font-stretch:normal;font-size:96px;line-height:1.25;font-family:DagnyCompPro-Light;-inkscape-font-specification:DagnyCompPro-Light;letter-spacing:0px;word-spacing:0px;fill:#7c878e;fill-opacity:1;stroke:none;stroke-width:1.23953736"
       id="path36"
       inkscape:connector-curvature="0" /><path
       d="m 521.60665,32.707933 h -10.35261 v -4.283842 h 9.99563 q -0.95197,-3.331876 -1.78494,-7.02074 -0.71397,-3.807858 -0.71397,-7.377726 0,-2.736899 0.47598,-5.2358062 0.59498,-2.4989074 2.02293,-4.4028368 1.42794,-1.9039295 3.80786,-2.9748898 2.4989,-1.18995587 6.30676,-1.18995587 4.75983,0 8.68668,1.66593827 l -1.30895,4.640828 q -1.30895,-0.5949779 -3.09389,-0.9519647 -1.66593,-0.4759824 -3.33187,-0.4759824 -3.80786,0 -5.71179,2.4989074 -1.78494,2.4989071 -1.78494,7.0207401 0,3.450872 0.71398,7.496722 0.83297,3.926854 1.78493,6.306766 h 11.06659 v 4.283842 h -10.7096 v 53.42902 h -6.06878 z"
       style="font-style:normal;font-variant:normal;font-weight:normal;font-stretch:normal;font-size:96px;line-height:1.25;font-family:DagnyCompPro-Light;-inkscape-font-specification:DagnyCompPro-Light;letter-spacing:0px;word-spacing:0px;fill:#7c878e;fill-opacity:1;stroke:none;stroke-width:1.23953736"
       id="path38"
       inkscape:connector-curvature="0" /><path
       d="m 572.81008,87.802891 q -6.30676,0 -11.06659,-2.379912 -4.75982,-2.379912 -7.9727,-6.544757 -3.21288,-4.164846 -4.87882,-9.757639 -1.66594,-5.592793 -1.66594,-12.018554 0,-6.425762 1.66594,-11.899559 1.66594,-5.592793 4.87882,-9.638643 3.21288,-4.164846 7.9727,-6.425762 4.75983,-2.379912 11.06659,-2.379912 6.18778,0 10.9476,2.379912 4.75982,2.260916 7.9727,6.306766 3.21288,4.04585 4.87882,9.638643 1.66594,5.592793 1.66594,12.018555 0,6.425761 -1.66594,12.018554 -1.66594,5.592793 -4.87882,9.757639 -3.21288,4.164845 -7.9727,6.544757 -4.75982,2.379912 -10.9476,2.379912 z m 0,-4.759824 q 4.64083,0 8.2107,-2.022925 3.68886,-2.022925 6.06878,-5.592793 2.4989,-3.569867 3.68886,-8.210695 1.30895,-4.759824 1.30895,-10.114625 0,-5.473798 -1.30895,-10.114626 -1.18996,-4.640828 -3.68886,-7.972704 -2.37992,-3.450872 -6.06878,-5.354802 -3.56987,-2.022925 -8.32969,-2.022925 -4.75982,0 -8.32969,2.022925 -3.56987,1.90393 -6.06878,5.354802 -2.37991,3.331876 -3.56987,7.972704 -1.18995,4.640828 -1.18995,10.114626 0,5.354801 1.18995,10.114625 1.30896,4.640828 3.68887,8.210695 2.37991,3.569868 5.94978,5.592793 3.68886,2.022925 8.44868,2.022925 z"
       style="font-style:normal;font-variant:normal;font-weight:normal;font-stretch:normal;font-size:96px;line-height:1.25;font-family:DagnyCompPro-Light;-inkscape-font-specification:DagnyCompPro-Light;letter-spacing:0px;word-spacing:0px;fill:#7c878e;fill-opacity:1;stroke:none;stroke-width:1.23953736"
       id="path40"
       inkscape:connector-curvature="0" /><path
       d="m 612.24411,28.424091 h 5.11681 l 0.71397,13.684493 q 1.18996,-3.331876 3.21288,-6.187771 2.14192,-2.855894 4.87882,-4.878819 2.7369,-2.022925 5.94978,-3.093885 3.21288,-1.189956 6.78275,-1.189956 v 6.544757 q -0.59498,-0.118995 -1.30895,-0.118995 -0.71398,0 -1.30895,0 -3.21288,0 -6.42576,1.427947 -3.09389,1.308951 -5.71179,4.04585 -2.61791,2.617903 -4.28384,6.663753 -1.54695,3.926855 -1.54695,9.043665 v 31.771823 h -6.06877 z"
       style="font-style:normal;font-variant:normal;font-weight:normal;font-stretch:normal;font-size:96px;line-height:1.25;font-family:DagnyCompPro-Light;-inkscape-font-specification:DagnyCompPro-Light;letter-spacing:0px;word-spacing:0px;fill:#7c878e;fill-opacity:1;stroke:none;stroke-width:1.23953736"
       id="path42"
       inkscape:connector-curvature="0" /><path
       d="m 649.66264,28.424091 h 5.11681 l 0.71398,12.851524 q 2.02292,-6.425762 6.66375,-10.471612 4.64083,-4.04585 11.18559,-4.04585 6.78274,0 10.5906,4.164846 3.92686,4.164845 4.87882,10.23362 2.14192,-6.18777 6.42576,-10.23362 4.40284,-4.164846 11.78057,-4.164846 4.52183,0 7.61572,1.665938 3.09388,1.546943 4.99781,4.283842 1.90393,2.736898 2.7369,6.544757 0.83297,3.807859 0.83297,8.0917 v 38.792563 h -6.06878 V 48.41535 q 0,-8.210695 -3.21288,-12.256545 -3.09388,-4.04585 -8.80567,-4.04585 -3.45087,0 -6.30677,1.665938 -2.85589,1.665938 -4.99781,4.640828 -2.02293,2.855894 -3.21288,6.901744 -1.07096,4.04585 -1.07096,8.805674 v 32.009814 h -6.06878 V 49.486311 q 0,-8.92467 -3.33188,-13.089515 -3.21288,-4.283841 -8.68667,-4.283841 -3.45088,0 -6.30677,1.665938 -2.85589,1.665938 -4.99782,4.640828 -2.02292,2.97489 -3.21288,7.139735 -1.18995,4.04585 -1.18995,8.92467 v 31.652827 h -6.06878 z"
       style="font-style:normal;font-variant:normal;font-weight:normal;font-stretch:normal;font-size:96px;line-height:1.25;font-family:DagnyCompPro-Light;-inkscape-font-specification:DagnyCompPro-Light;letter-spacing:0px;word-spacing:0px;fill:#7c878e;fill-opacity:1;stroke:none;stroke-width:1.23953736"
       id="path44"
       inkscape:connector-curvature="0" /><path
       d="m 776.7332,86.136953 q -0.59498,-2.736899 -0.95196,-5.354802 -0.35699,-2.736899 -0.35699,-6.068775 -2.6179,6.306766 -7.97271,9.757638 -5.3548,3.331877 -12.13755,3.331877 -8.21069,0 -13.08951,-4.640828 -4.87882,-4.640828 -4.87882,-12.732528 0,-4.640828 1.66594,-7.615718 1.66594,-3.093885 4.52183,-4.997815 2.97489,-2.022925 6.90174,-3.093885 4.04585,-1.070961 8.56769,-1.784934 l 16.0644,-2.498908 v -4.402836 q 0,-4.640828 -1.18995,-7.496723 -1.07096,-2.855894 -2.97489,-4.283841 -1.90393,-1.546942 -4.40284,-2.022925 -2.37991,-0.594978 -4.99782,-0.594978 -7.25873,0 -11.78056,2.736899 -4.52183,2.617903 -7.37773,6.901744 l -3.45087,-3.807859 q 3.21288,-4.759823 8.80568,-7.734713 5.71178,-2.97489 14.27947,-2.97489 9.99563,0 14.51746,4.521832 4.64083,4.521833 4.64083,14.993445 v 24.513091 q 0,2.617903 0,4.640828 0.11899,2.022926 0.23799,3.807859 0.23799,1.784934 0.59498,3.450872 0.35698,1.665939 0.83296,3.450873 z m -1.66594,-31.414836 -16.30239,2.617903 q -8.44869,1.308951 -12.01856,4.402837 -3.45087,3.093885 -3.45087,8.448686 0,5.473798 3.33188,9.281657 3.45087,3.807858 9.87663,3.807858 3.80786,0 7.13973,-1.427947 3.45088,-1.546942 5.94978,-4.164845 2.49891,-2.617903 3.92686,-6.187771 1.54694,-3.688863 1.54694,-7.972705 z"
       style="font-style:normal;font-variant:normal;font-weight:normal;font-stretch:normal;font-size:96px;line-height:1.25;font-family:DagnyCompPro-Light;-inkscape-font-specification:DagnyCompPro-Light;letter-spacing:0px;word-spacing:0px;fill:#7c878e;fill-opacity:1;stroke:none;stroke-width:1.23953736"
       id="path46"
       inkscape:connector-curvature="0" /><path
       d="m 803.99435,32.707933 h -10.11463 v -4.283842 h 2.37991 q 3.33188,0 5.23581,-0.475982 1.90393,-0.475982 2.85589,-1.90393 0.95197,-1.427947 1.18996,-4.04585 0.35699,-2.736898 0.71397,-7.139735 l 0.119,-1.665938 h 3.56987 v 15.231435 h 12.85152 v 4.283842 H 809.94413 V 72.45246 q 0,6.068775 1.66593,8.329691 1.78494,2.260916 5.94978,2.260916 2.02293,0 3.45088,-0.356987 1.42794,-0.475982 2.73689,-1.07096 l 0.83297,4.402837 q -4.16484,1.784934 -8.68668,1.784934 -3.68886,0 -6.06877,-1.07096 -2.26092,-0.951965 -3.56987,-2.855895 -1.30895,-1.903929 -1.78493,-4.402836 -0.47598,-2.617903 -0.47598,-5.711789 z"
       style="font-style:normal;font-variant:normal;font-weight:normal;font-stretch:normal;font-size:96px;line-height:1.25;font-family:DagnyCompPro-Light;-inkscape-font-specification:DagnyCompPro-Light;letter-spacing:0px;word-spacing:0px;fill:#7c878e;fill-opacity:1;stroke:none;stroke-width:1.23953736"
       id="path48"
       inkscape:connector-curvature="0" /><path
       d="m 836.1715,6.1719159 h 6.30676 v 7.1397351 h -6.30676 z m 0.11899,22.2521751 h 6.06878 v 57.712862 h -6.06878 z"
       style="font-style:normal;font-variant:normal;font-weight:normal;font-stretch:normal;font-size:96px;line-height:1.25;font-family:DagnyCompPro-Light;-inkscape-font-specification:DagnyCompPro-Light;letter-spacing:0px;word-spacing:0px;fill:#7c878e;fill-opacity:1;stroke:none;stroke-width:1.23953736"
       id="path50"
       inkscape:connector-curvature="0" /><path
       d="m 881.91972,87.802891 q -6.30676,0 -11.06659,-2.379912 -4.75982,-2.379912 -7.9727,-6.544757 -3.21288,-4.164846 -4.87882,-9.757639 -1.66594,-5.592793 -1.66594,-12.018554 0,-6.425762 1.66594,-11.899559 1.66594,-5.592793 4.87882,-9.638643 3.21288,-4.164846 7.9727,-6.425762 4.75983,-2.379912 11.06659,-2.379912 6.18777,0 10.9476,2.379912 4.75982,2.260916 7.9727,6.306766 3.21288,4.04585 4.87882,9.638643 1.66594,5.592793 1.66594,12.018555 0,6.425761 -1.66594,12.018554 -1.66594,5.592793 -4.87882,9.757639 -3.21288,4.164845 -7.9727,6.544757 -4.75983,2.379912 -10.9476,2.379912 z m 0,-4.759824 q 4.64083,0 8.2107,-2.022925 3.68886,-2.022925 6.06877,-5.592793 2.49891,-3.569867 3.68887,-8.210695 1.30895,-4.759824 1.30895,-10.114625 0,-5.473798 -1.30895,-10.114626 -1.18996,-4.640828 -3.68887,-7.972704 -2.37991,-3.450872 -6.06877,-5.354802 -3.56987,-2.022925 -8.32969,-2.022925 -4.75983,0 -8.32969,2.022925 -3.56987,1.90393 -6.06878,5.354802 -2.37991,3.331876 -3.56987,7.972704 -1.18995,4.640828 -1.18995,10.114626 0,5.354801 1.18995,10.114625 1.30896,4.640828 3.68887,8.210695 2.37991,3.569868 5.94978,5.592793 3.68886,2.022925 8.44868,2.022925 z"
       style="font-style:normal;font-variant:normal;font-weight:normal;font-stretch:normal;font-size:96px;line-height:1.25;font-family:DagnyCompPro-Light;-inkscape-font-specification:DagnyCompPro-Light;letter-spacing:0px;word-spacing:0px;fill:#7c878e;fill-opacity:1;stroke:none;stroke-width:1.23953736"
       id="path52"
       inkscape:connector-curvature="0" /><path
       d="m 921.35375,28.424091 h 5.11681 l 0.71397,12.97052 q 1.07096,-2.855895 2.7369,-5.473798 1.78493,-2.617903 4.28384,-4.640828 2.49891,-2.14192 5.71179,-3.331876 3.21288,-1.189956 7.02074,-1.189956 8.68668,0 12.85152,5.711788 4.16485,5.592793 4.16485,15.11244 v 38.554572 h -6.06878 V 48.534346 q 0,-8.329691 -3.56986,-12.375541 -3.56987,-4.04585 -9.51965,-4.04585 -3.80786,0 -7.02074,1.665938 -3.09389,1.546943 -5.4738,4.402837 -2.26092,2.855894 -3.56987,6.901744 -1.30895,4.04585 -1.30895,8.924669 v 32.12881 h -6.06877 z"
       style="font-style:normal;font-variant:normal;font-weight:normal;font-stretch:normal;font-size:96px;line-height:1.25;font-family:DagnyCompPro-Light;-inkscape-font-specification:DagnyCompPro-Light;letter-spacing:0px;word-spacing:0px;fill:#7c878e;fill-opacity:1;stroke:none;stroke-width:1.23953736"
       id="path54"
       inkscape:connector-curvature="0" /><path
       d="m 1007.5958,2.1260658 h 24.1561 q 5.1168,0 9.9956,0.9519647 4.8789,0.8329691 8.5677,3.2128809 3.8079,2.2609163 6.0688,6.1877706 2.2609,3.807859 2.2609,9.757639 0,8.329691 -4.7598,13.327506 -4.7598,4.878819 -13.0895,6.068775 4.1648,0.594978 7.7347,2.14192 3.6888,1.546943 6.4257,4.164846 2.7369,2.617903 4.2839,6.425762 1.6659,3.688863 1.6659,8.567682 0,6.306767 -2.1419,10.709604 -2.0229,4.402836 -5.8308,7.258731 -3.6888,2.736898 -8.9246,4.04585 -5.2359,1.189956 -11.5426,1.189956 h -24.8701 z m 21.4192,37.0076282 q 3.4509,0 7.3777,-0.356986 4.0459,-0.475983 7.3778,-2.022925 3.4508,-1.665939 5.7117,-4.997815 2.261,-3.331877 2.261,-9.162661 0,-4.640828 -1.785,-7.615717 -1.7849,-2.97489 -4.7598,-4.640828 -2.8559,-1.7849343 -6.5447,-2.3799123 -3.6889,-0.5949779 -7.6158,-0.5949779 h -16.8973 V 39.133694 Z m 2.6179,41.767453 q 3.6889,0 7.6157,-0.713974 4.0459,-0.713973 7.2588,-2.736898 3.3318,-2.022926 5.3548,-5.592793 2.1419,-3.688864 2.1419,-9.638643 0,-5.354802 -2.1419,-8.805674 -2.142,-3.569867 -5.5928,-5.473797 -3.3319,-2.022925 -7.6157,-2.736898 -4.1649,-0.83297 -8.4487,-0.83297 h -16.0644 v 36.531647 z"
       style="font-style:normal;font-variant:normal;font-weight:normal;font-stretch:normal;font-size:96px;line-height:1.25;font-family:DagnyCompPro-Light;-inkscape-font-specification:DagnyCompPro-Light;letter-spacing:0px;word-spacing:0px;fill:#7c878e;fill-opacity:1;stroke:none;stroke-width:1.23953736"
       id="path56"
       inkscape:connector-curvature="0" /><path
       d="m 1074.9789,28.424091 h 5.1168 l 0.714,13.684493 q 1.19,-3.331876 3.2129,-6.187771 2.1419,-2.855894 4.8788,-4.878819 2.7369,-2.022925 5.9498,-3.093885 3.2129,-1.189956 6.7827,-1.189956 v 6.544757 q -0.595,-0.118995 -1.3089,-0.118995 -0.714,0 -1.309,0 -3.2129,0 -6.4257,1.427947 -3.0939,1.308951 -5.7118,4.04585 -2.6179,2.617903 -4.2839,6.663753 -1.5469,3.926855 -1.5469,9.043665 v 31.771823 h -6.0688 z"
       style="font-style:normal;font-variant:normal;font-weight:normal;font-stretch:normal;font-size:96px;line-height:1.25;font-family:DagnyCompPro-Light;-inkscape-font-specification:DagnyCompPro-Light;letter-spacing:0px;word-spacing:0px;fill:#7c878e;fill-opacity:1;stroke:none;stroke-width:1.23953736"
       id="path58"
       inkscape:connector-curvature="0" /><path
       d="m 1135.4826,87.802891 q -6.3068,0 -11.0666,-2.379912 -4.7598,-2.379912 -7.9727,-6.544757 -3.2129,-4.164846 -4.8788,-9.757639 -1.666,-5.592793 -1.666,-12.018554 0,-6.425762 1.666,-11.899559 1.6659,-5.592793 4.8788,-9.638643 3.2129,-4.164846 7.9727,-6.425762 4.7598,-2.379912 11.0666,-2.379912 6.1878,0 10.9476,2.379912 4.7599,2.260916 7.9727,6.306766 3.2129,4.04585 4.8789,9.638643 1.6659,5.592793 1.6659,12.018555 0,6.425761 -1.6659,12.018554 -1.666,5.592793 -4.8789,9.757639 -3.2128,4.164845 -7.9727,6.544757 -4.7598,2.379912 -10.9476,2.379912 z m 0,-4.759824 q 4.6409,0 8.2107,-2.022925 3.6889,-2.022925 6.0688,-5.592793 2.4989,-3.569867 3.6889,-8.210695 1.3089,-4.759824 1.3089,-10.114625 0,-5.473798 -1.3089,-10.114626 -1.19,-4.640828 -3.6889,-7.972704 -2.3799,-3.450872 -6.0688,-5.354802 -3.5698,-2.022925 -8.3297,-2.022925 -4.7598,0 -8.3297,2.022925 -3.5699,1.90393 -6.0688,5.354802 -2.3799,3.331876 -3.5698,7.972704 -1.19,4.640828 -1.19,10.114626 0,5.354801 1.19,10.114625 1.3089,4.640828 3.6888,8.210695 2.3799,3.569868 5.9498,5.592793 3.6889,2.022925 8.4487,2.022925 z"
       style="font-style:normal;font-variant:normal;font-weight:normal;font-stretch:normal;font-size:96px;line-height:1.25;font-family:DagnyCompPro-Light;-inkscape-font-specification:DagnyCompPro-Light;letter-spacing:0px;word-spacing:0px;fill:#7c878e;fill-opacity:1;stroke:none;stroke-width:1.23953736"
       id="path60"
       inkscape:connector-curvature="0" /><path
       d="m 1171.1088,28.424091 h 6.5448 l 13.2085,51.882078 13.2085,-51.882078 h 7.0207 l 13.0895,51.882078 13.2086,-51.882078 h 6.4257 l -16.3024,57.712862 h -6.9017 l -13.0895,-49.978148 -13.2086,49.978148 h -7.0207 z"
       style="font-style:normal;font-variant:normal;font-weight:normal;font-stretch:normal;font-size:96px;line-height:1.25;font-family:DagnyCompPro-Light;-inkscape-font-specification:DagnyCompPro-Light;letter-spacing:0px;word-spacing:0px;fill:#7c878e;fill-opacity:1;stroke:none;stroke-width:1.23953736"
       id="path62"
       inkscape:connector-curvature="0" /><path
       d="m 1256.9474,73.999402 q 2.9749,4.164846 7.6157,6.663753 4.6408,2.498908 10.3526,2.498908 2.9749,0 5.5928,-0.713974 2.7369,-0.832969 4.6408,-2.260916 2.023,-1.427947 3.0939,-3.569868 1.19,-2.260916 1.19,-5.11681 0,-4.283841 -2.4989,-6.663753 -2.3799,-2.379912 -6.0688,-3.926855 -3.6889,-1.546942 -8.0917,-2.736898 -4.2838,-1.189956 -7.9727,-2.97489 -3.6889,-1.903929 -6.1878,-4.878819 -2.3799,-2.97489 -2.3799,-8.0917 0,-4.04585 1.547,-6.901744 1.6659,-2.97489 4.4028,-4.87882 2.7369,-1.903929 6.1878,-2.736898 3.4508,-0.951965 7.2587,-0.951965 11.4236,0 18.5633,7.139735 l -3.3319,4.04585 q -2.7369,-3.093885 -6.7827,-4.759823 -4.0459,-1.784934 -8.6867,-1.784934 -2.4989,0 -4.8788,0.594978 -2.2609,0.594978 -4.1649,1.903929 -1.7849,1.189956 -2.9748,3.212881 -1.071,1.90393 -1.071,4.640828 0,3.926855 2.3799,6.187771 2.4989,2.141921 6.1878,3.569868 3.6888,1.427947 7.9727,2.736898 4.4028,1.189956 8.0917,3.093886 3.6888,1.903929 6.0688,5.11681 2.4989,3.093885 2.4989,8.448687 0,4.164846 -1.666,7.377727 -1.5469,3.093885 -4.4028,5.235806 -2.7369,2.14192 -6.5448,3.212881 -3.6888,1.07096 -7.9727,1.07096 -6.7827,0 -12.2565,-2.379912 -5.3548,-2.379912 -9.2817,-7.377727 z"
       style="font-style:normal;font-variant:normal;font-weight:normal;font-stretch:normal;font-size:96px;line-height:1.25;font-family:DagnyCompPro-Light;-inkscape-font-specification:DagnyCompPro-Light;letter-spacing:0px;word-spacing:0px;fill:#7c878e;fill-opacity:1;stroke:none;stroke-width:1.23953736"
       id="path64"
       inkscape:connector-curvature="0" /><path
       d="m 1312.0107,58.648971 q 0.119,5.473797 1.428,9.99563 1.4279,4.521832 3.9268,7.734713 2.499,3.212881 6.1878,4.997815 3.6889,1.784934 8.5677,1.784934 5.7118,0 9.9956,-2.617903 4.2839,-2.736899 7.1398,-8.448687 l 4.6408,2.617903 q -1.428,2.736899 -3.4509,5.11681 -2.0229,2.379912 -4.7598,4.164846 -2.6179,1.784934 -6.0688,2.736899 -3.4509,1.07096 -7.7347,1.07096 -6.6637,0 -11.5426,-2.379912 -4.8788,-2.379912 -8.0917,-6.425762 -3.2128,-4.164845 -4.7598,-9.638643 -1.5469,-5.473797 -1.5469,-11.661568 0,-6.068775 1.5469,-11.661567 1.547,-5.592793 4.6408,-9.876634 3.0939,-4.283842 7.7348,-6.782749 4.6408,-2.617903 10.9475,-2.617903 6.1878,0 10.7096,2.498907 4.5219,2.379912 7.4968,6.425762 2.9749,3.926855 4.4028,9.162661 1.428,5.235806 1.428,10.709603 0,1.189956 -0.119,1.903929 0,0.594978 0,1.189956 z m 18.8013,-27.24999 q -8.5676,0 -13.4465,6.425762 -4.7598,6.425762 -5.3548,16.897374 h 36.7697 q 0,-4.164846 -1.071,-8.329692 -0.9519,-4.164845 -3.0939,-7.496722 -2.1419,-3.331876 -5.5928,-5.354801 -3.3318,-2.141921 -8.2107,-2.141921 z"
       style="font-style:normal;font-variant:normal;font-weight:normal;font-stretch:normal;font-size:96px;line-height:1.25;font-family:DagnyCompPro-Light;-inkscape-font-specification:DagnyCompPro-Light;letter-spacing:0px;word-spacing:0px;fill:#7c878e;fill-opacity:1;stroke:none;stroke-width:1.23953736"
       id="path66"
       inkscape:connector-curvature="0" /><path
       d="m 1368.5169,28.424091 h 5.1168 l 0.714,13.684493 q 1.19,-3.331876 3.2129,-6.187771 2.1419,-2.855894 4.8788,-4.878819 2.7369,-2.022925 5.9498,-3.093885 3.2129,-1.189956 6.7827,-1.189956 v 6.544757 q -0.595,-0.118995 -1.3089,-0.118995 -0.714,0 -1.309,0 -3.2129,0 -6.4257,1.427947 -3.0939,1.308951 -5.7118,4.04585 -2.6179,2.617903 -4.2839,6.663753 -1.5469,3.926855 -1.5469,9.043665 v 31.771823 h -6.0688 z"
       style="font-style:normal;font-variant:normal;font-weight:normal;font-stretch:normal;font-size:96px;line-height:1.25;font-family:DagnyCompPro-Light;-inkscape-font-specification:DagnyCompPro-Light;letter-spacing:0px;word-spacing:0px;fill:#7c878e;fill-opacity:1;stroke:none;stroke-width:1.23953736"
       id="path68"
       inkscape:connector-curvature="0" /><g
       style="font-style:normal;font-weight:normal;font-size:40px;line-height:1.25;font-family:sans-serif;letter-spacing:0px;word-spacing:0px;fill:#000000;fill-opacity:1;stroke:none"
       id="text3754"
       transform="matrix(0.92768911,0,0,0.92768911,31.292295,1.8714404)" /></g></svg>